Flexion_states
version=1
nRows=12
nColumns=41
inDegrees=yes

# SIMM Motion File Header:
name Flexion_states
datacolumns 41
datarows 12
otherdata 1
range 2.08146436 4.19659213
endheader
time	/jointset/ground_thorax/thorax_tilt/value	/jointset/ground_thorax/thorax_tilt/speed	/jointset/ground_thorax/thorax_list/value	/jointset/ground_thorax/thorax_list/speed	/jointset/ground_thorax/thorax_rotation/value	/jointset/ground_thorax/thorax_rotation/speed	/jointset/ground_thorax/thorax_tx/value	/jointset/ground_thorax/thorax_tx/speed	/jointset/ground_thorax/thorax_ty/value	/jointset/ground_thorax/thorax_ty/speed	/jointset/ground_thorax/thorax_tz/value	/jointset/ground_thorax/thorax_tz/speed	/jointset/sternoclavicular/sternoclavicular_r2/value	/jointset/sternoclavicular/sternoclavicular_r2/speed	/jointset/sternoclavicular/sternoclavicular_r3/value	/jointset/sternoclavicular/sternoclavicular_r3/speed	/jointset/unrotscap/unrotscap_r3/value	/jointset/unrotscap/unrotscap_r3/speed	/jointset/unrotscap/unrotscap_r2/value	/jointset/unrotscap/unrotscap_r2/speed	/jointset/acromioclavicular/acromioclavicular_r2/value	/jointset/acromioclavicular/acromioclavicular_r2/speed	/jointset/acromioclavicular/acromioclavicular_r3/value	/jointset/acromioclavicular/acromioclavicular_r3/speed	/jointset/acromioclavicular/acromioclavicular_r1/value	/jointset/acromioclavicular/acromioclavicular_r1/speed	/jointset/unrothum/unrothum_r1/value	/jointset/unrothum/unrothum_r1/speed	/jointset/unrothum/unrothum_r3/value	/jointset/unrothum/unrothum_r3/speed	/jointset/unrothum/unrothum_r2/value	/jointset/unrothum/unrothum_r2/speed	/jointset/shoulder0/elv_angle/value	/jointset/shoulder0/elv_angle/speed	/jointset/shoulder1/shoulder_elv/value	/jointset/shoulder1/shoulder_elv/speed	/jointset/shoulder1/shoulder1_r2/value	/jointset/shoulder1/shoulder1_r2/speed	/jointset/shoulder2/shoulder_rot/value	/jointset/shoulder2/shoulder_rot/speed
      2.08146436	      0.00000000	      0.00000000	      0.00000000	      0.00000000	      0.00000000	      0.00000000	     -0.00000000	     -0.00000000	     -0.00000000	     -0.00000000	     -0.00000000	      0.00000000	    -11.84814298	     15.78637824	      5.01831021	     -6.68635948	     -5.01831021	      6.68635948	     11.84814298	    -15.78637824	     -2.39898947	      3.19639586	     19.38753031	    -25.83180225	      8.71475752	    -11.61147859	     -8.71475752	     11.61147859	    -19.38753031	     25.83180225	      2.39898947	     -3.19639586	     90.00000000	      0.00000000	     48.95973218	    -65.23358571	    -90.00000000	     -0.00000000	      0.00000000	     -0.00000000
      2.13800680	      0.00000000	      0.00000000	      0.00000000	      0.00000000	      0.00000000	      0.00000000	     -0.00000000	     -0.00000000	     -0.00000000	     -0.00000000	     -0.00000000	      0.00000000	    -10.97165432	     15.18623610	      4.64707127	     -6.43216779	     -4.64707127	      6.43216779	     10.97165432	    -15.18623610	     -2.22151972	      3.07488022	     17.95330129	    -24.84976870	      8.07006694	    -11.17005133	     -8.07006694	     11.17005133	    -17.95330129	     24.84976870	      2.22151972	     -3.07488022	     90.00000000	      0.00000000	     45.33784391	    -62.75363602	    -90.00000000	     -0.00000000	      0.00000000	     -0.00000000
      2.19454924	      0.00000000	      0.00000000	      0.00000000	      0.00000000	      0.00000000	      0.00000000	     -0.00000000	     -0.00000000	     -0.00000000	     -0.00000000	     -0.00000000	      0.00000000	    -10.13303139	     14.46475979	      4.29187046	     -6.12658472	     -4.29187046	      6.12658472	     10.13303139	    -14.46475979	     -2.05171694	      2.92879707	     16.58103328	    -23.66919182	      7.45322804	    -10.63937821	     -7.45322804	     10.63937821	    -16.58103328	     23.66919182	      2.05171694	     -2.92879707	     90.00000000	      0.00000000	     41.87242706	    -59.77230075	    -90.00000000	     -0.00000000	      0.00000000	     -0.00000000
      2.26992363	      0.00000000	      0.00000000	      0.00000000	      0.00000000	      0.00000000	      0.00000000	     -0.00000000	     -0.00000000	     -0.00000000	     -0.00000000	     -0.00000000	      0.00000000	     -9.08133362	     13.43394874	      3.84642128	     -5.68998216	     -3.84642128	      5.68998216	      9.08133362	    -13.43394874	     -1.83877117	      2.72008041	     14.86010349	    -21.98243968	      6.67966454	     -9.88117767	     -6.67966454	      9.88117767	    -14.86010349	     21.98243968	      1.83877117	     -2.72008041	     90.00000000	      0.00000000	     37.52652739	    -55.51271059	    -90.00000000	     -0.00000000	      0.00000000	     -0.00000000
      2.36416105	      0.00000000	      0.00000000	      0.00000000	      0.00000000	      0.00000000	      0.00000000	     -0.00000000	     -0.00000000	     -0.00000000	     -0.00000000	     -0.00000000	      0.00000000	     -7.87735647	     12.11623038	      3.33647378	     -5.13185929	     -3.33647378	      5.13185929	      7.87735647	    -12.11623038	     -1.59499217	      2.45327130	     12.88999360	    -19.82621109	      5.79409378	     -8.91194595	     -5.79409378	      8.91194595	    -12.88999360	     19.82621109	      1.59499217	     -2.45327130	     90.00000000	      0.00000000	     32.55136805	    -50.06754184	    -90.00000000	     -0.00000000	      0.00000000	     -0.00000000
      2.49482765	      0.00000000	      0.00000000	      0.00000000	      0.00000000	      0.00000000	      0.00000000	     -0.00000000	     -0.00000000	     -0.00000000	     -0.00000000	     -0.00000000	     -0.00000000	     -6.41366719	     10.28885654	      2.71652457	     -4.35787059	     -2.71652457	      4.35787059	      6.41366719	    -10.28885654	     -1.29862715	      2.08326812	     10.49490771	    -16.83601544	      4.71749493	     -7.56784334	     -4.71749493	      7.56784334	    -10.49490771	     16.83601544	      1.29862715	     -2.08326812	     90.00000000	      0.00000000	     26.50300800	    -42.51633878	    -90.00000000	     -0.00000000	      0.00000000	     -0.00000000
      2.70354245	      0.00000000	      0.00000000	      0.00000000	     -0.00000000	      0.00000000	      0.00000000	     -0.00000000	     -0.00000000	     -0.00000000	     -0.00000000	     -0.00000000	      0.00000000	     -4.56839993	      7.40050028	      1.93495707	     -3.13450017	     -1.93495707	      3.13450017	      4.56839993	     -7.40050028	     -0.92500094	      1.49843923	      7.47543241	    -12.10969717	      3.36023103	     -5.44334801	     -3.36023103	      5.44334801	     -7.47543241	     12.10969717	      0.92500094	     -1.49843923	     90.00000000	     -0.00000000	     18.87786443	    -30.58086930	    -90.00000000	     -0.00000000	      0.00000000	     -0.00000000
      3.11480837	      0.00000000	     -0.00000000	      0.00000000	      0.00000000	      0.00000000	      0.00000000	     -0.00000000	     -0.00000000	     -0.00000000	     -0.00000000	     -0.00000000	      0.00000000	     -2.67329463	      1.84778550	      1.13228054	     -0.78263411	     -1.13228054	      0.78263411	      2.67329463	     -1.84778550	     -0.54128362	      0.37413610	      4.37440540	     -3.02359597	      1.96630936	     -1.35911616	     -1.96630936	      1.35911616	     -4.37440540	      3.02359597	      0.54128362	     -0.37413610	     90.00000000	      0.00000000	     11.04677663	     -7.63554959	    -90.00000000	     -0.00000000	     -0.00000000	     -0.00000000
      3.81003614	      0.00000000	      0.00000000	      0.00000000	     -0.00000000	      0.00000000	      0.00000000	     -0.00000000	     -0.00000000	     -0.00000000	     -0.00000000	     -0.00000000	     -0.00000000	     -4.52391980	     -7.06865237	      1.91611740	      2.99394516	     -1.91611740	     -2.99394516	      4.52391980	      7.06865237	     -0.91599468	     -1.43124730	      7.40264803	     11.56668284	      3.32751421	      5.19926131	     -3.32751421	     -5.19926131	     -7.40264803	    -11.56668284	      0.91599468	      1.43124730	     90.00000000	      0.00000000	     18.69406052	     29.20958395	    -90.00000000	     -0.00000000	     -0.00000000	     -0.00000000
      3.90425492	      0.00000000	      0.00000000	      0.00000000	     -0.00000000	      0.00000000	      0.00000000	     -0.00000000	     -0.00000000	     -0.00000000	     -0.00000000	     -0.00000000	     -0.00000000	     -5.24464570	     -8.22829230	      2.22138264	      3.48511352	     -2.22138264	     -3.48511352	      5.24464570	      8.22829230	     -1.06192590	     -1.66604899	      8.58199700	     13.46424216	      3.85763538	      6.05222036	     -3.85763538	     -6.05222036	     -8.58199700	    -13.46424216	      1.06192590	      1.66604899	     90.00000000	      0.00000000	     21.67229493	     34.00152984	    -90.00000000	     -0.00000000	     -0.00000000	     -0.00000000
      4.07909723	      0.00000000	      0.00000000	      0.00000000	     -0.00000000	      0.00000000	      0.00000000	     -0.00000000	     -0.00000000	     -0.00000000	     -0.00000000	     -0.00000000	     -0.00000000	     -6.86915672	    -10.34678110	      2.90944829	      4.38240468	     -2.90944829	     -4.38240468	      6.86915672	     10.34678110	     -1.39085380	     -2.09499657	     11.24024114	     16.93079941	      5.05252472	      7.61044904	     -5.05252472	     -7.61044904	    -11.24024114	    -16.93079941	      1.39085380	      2.09499657	     90.00000000	      0.00000000	     28.38521396	     42.75569871	    -90.00000000	     -0.00000000	     -0.00000000	     -0.00000000
      4.19659213	      0.00000000	      0.00000000	      0.00000000	     -0.00000000	      0.00000000	      0.00000000	     -0.00000000	     -0.00000000	     -0.00000000	     -0.00000000	     -0.00000000	     -0.00000000	     -8.16710696	    -11.74240492	      3.45919832	      4.97352459	     -3.45919832	     -4.97352459	      8.16710696	     11.74240492	     -1.65366030	     -2.37757983	     13.36412246	     19.21450742	      6.00721623	      8.63698318	     -6.00721623	     -8.63698318	    -13.36412246	    -19.21450742	      1.65366030	      2.37757983	     90.00000000	     -0.00000000	     33.74869547	     48.52279390	    -90.00000000	     -0.00000000	     -0.00000000	     -0.00000000
